<svg width="95" height="172" viewBox="0 0 95 172" fill="none" xmlns="http://www.w3.org/2000/svg">
<g id="Group 4">
<path id="Vector" d="M69.7768 72.4401L48.4038 93.884C46.7174 95.5743 43.9854 95.5743 42.2994 93.884L20.8051 72.3215C18.853 70.3599 18.853 67.1787 20.8051 65.2187C22.7628 63.2571 25.9322 63.2571 27.886 65.2187L41.9581 79.3376C43.8324 81.2194 46.8708 81.2194 48.7451 79.3376L62.8198 65.2187C64.924 63.1061 68.4415 63.2695 70.3266 65.709C71.8878 67.7278 71.5759 70.6338 69.7768 72.4401ZM94.6964 79.1516C94.6909 74.7691 92.9528 70.5681 89.8645 67.4693L84.3111 61.8993C84.2291 61.8251 84.1457 61.7551 84.0663 61.6757L69.9938 47.5568C68.1199 45.6763 65.0799 45.6763 63.2056 47.5568L49.1321 61.6757C47.0084 63.8076 43.4467 63.6232 41.5737 61.118C40.0642 59.1008 40.3972 56.238 42.1751 54.4539L63.5468 33.0117C65.2345 31.3197 67.9665 31.3197 69.6529 33.0117L82.3688 45.7684L86.9138 40.9764C90.0247 37.6962 91.7624 33.3428 91.7679 28.8149C91.7679 23.0409 90.4578 18.0406 87.8369 13.8114C85.2163 9.58555 81.7213 6.28537 77.3545 3.91321C72.9851 1.54105 68.1293 0.356445 62.7865 0.356445H18.7624C8.50956 0.356445 0.197998 8.69415 0.197998 18.9807V93.4646C0.197998 101.838 6.96276 108.625 15.3077 108.625H64.6357C70.1861 108.625 75.22 107.413 79.744 104.989C84.2654 102.568 87.8885 99.1383 90.6121 94.7038C93.3346 90.271 94.6964 85.1145 94.6964 79.2369V79.1516Z" fill="#E60000"/>
<path id="Vector_2" d="M5.30667 133.265C5.58517 132.985 5.80811 132.657 5.97351 132.281C6.13924 131.905 6.22161 131.507 6.22161 131.088C6.22161 130.667 6.13924 130.266 5.97351 129.881C5.80811 129.497 5.58517 129.164 5.30667 128.885C5.02817 128.605 4.69672 128.382 4.31394 128.216C3.92953 128.049 3.52976 127.967 3.1107 127.967C2.69295 127.967 2.29187 128.049 1.90778 128.216C1.52468 128.382 1.19487 128.605 0.914731 128.885C0.63623 129.164 0.414931 129.497 0.247896 129.881C0.083476 130.266 0.00012207 130.667 0.00012207 131.088C0.00012207 131.507 0.083476 131.905 0.247896 132.281C0.414931 132.657 0.63623 132.985 0.914731 133.265C1.19487 133.544 1.52468 133.768 1.90778 133.934C2.29187 134.1 2.69295 134.182 3.1107 134.182C3.52976 134.182 3.92953 134.1 4.31394 133.934C4.69672 133.768 5.02817 133.544 5.30667 133.265Z" fill="#E60000"/>
<path id="Vector_3" d="M5.30667 142.033C5.58517 141.754 5.80811 141.425 5.97351 141.049C6.13924 140.674 6.22161 140.275 6.22161 139.856C6.22161 139.419 6.13924 139.012 5.97351 138.636C5.80811 138.261 5.58517 137.928 5.30667 137.639C5.02817 137.351 4.69672 137.124 4.31394 136.957C3.92953 136.793 3.52976 136.708 3.1107 136.708C2.69295 136.708 2.29187 136.793 1.90778 136.957C1.52468 137.124 1.19487 137.351 0.914731 137.639C0.63623 137.928 0.414931 138.261 0.247896 138.636C0.083476 139.012 0.00012207 139.419 0.00012207 139.856C0.00012207 140.275 0.083476 140.674 0.247896 141.049C0.414931 141.425 0.63623 141.754 0.914731 142.033C1.19487 142.312 1.52468 142.536 1.90778 142.702C2.29187 142.868 2.69295 142.951 3.1107 142.951C3.52976 142.951 3.92953 142.868 4.31394 142.702C4.69672 142.536 5.02817 142.312 5.30667 142.033Z" fill="#E60000"/>
<path id="Vector_4" d="M59.965 136.843C59.965 137.401 59.5152 137.854 58.9582 137.854L55.9561 137.878C55.4188 137.879 54.9883 137.453 54.9592 136.921V138.043L54.9536 125.269C54.9549 125.272 54.9562 125.273 54.9579 125.276L54.9562 124.234C54.9562 124.22 54.952 124.208 54.952 124.193V124.185C54.9242 122.912 53.8909 121.888 52.6171 121.89H52.3481C51.0726 121.891 50.0423 122.915 50.0158 124.189H50.0089L50.0187 138.046L50.02 138.012H50.0396C50.073 138.755 50.1733 139.409 50.3472 139.965C50.563 140.654 50.8833 141.223 51.3066 141.668C51.7299 142.114 52.248 142.439 52.8593 142.649C53.4706 142.857 54.1711 142.962 54.9634 142.961L57.0241 142.959H57.1077L59.9915 142.935L64.9891 142.934L67.5388 142.93L72.4848 142.927L74.9995 142.926L79.9455 142.923L87.6598 142.917L88.1792 142.916L89.9712 142.914H89.9784C91.5712 142.912 92.7938 142.483 93.6459 141.626C94.4785 140.791 94.9018 139.432 94.9201 137.555C94.9214 137.508 94.9244 137.464 94.9244 137.415L94.9201 130.612C94.9201 130.598 94.9159 130.585 94.9159 130.571V130.363C94.9146 129.068 93.8672 128.017 92.5751 128.019H92.3077C91.0155 128.02 89.9685 129.071 89.9699 130.367V130.539C89.9685 130.566 89.963 130.589 89.963 130.616L89.9669 137.057C89.9114 137.561 89.4992 137.959 88.9827 137.959L87.2783 137.96V137.965L82.6455 137.967V137.963L80.9424 137.965C80.3995 137.965 79.9651 137.533 79.9412 136.993L79.9399 134.181C79.9399 134.178 79.9399 134.176 79.9399 134.171V133.098L79.9373 130.31C79.9357 129.013 78.8887 127.964 77.5965 127.966H77.3291C76.037 127.967 74.991 129.018 74.991 130.314L74.9926 130.499L74.9939 132.978L74.9926 133.132C74.991 133.149 74.987 133.166 74.987 133.184L74.9897 136.901C74.9534 137.425 74.5189 137.843 73.976 137.844H74.0067H73.7629H73.504C72.947 137.844 72.4972 137.409 72.4805 136.865L72.4792 134.079C72.4792 134.071 72.4805 134.061 72.4805 134.051V132.978C72.4792 132.978 72.4792 132.98 72.4776 132.981V132.042C72.4763 130.746 71.4277 129.696 70.1368 129.696H69.8681C68.5773 129.698 67.5303 130.75 67.5316 132.045V132.985C67.5303 132.984 67.5303 132.983 67.529 132.981V134.055C67.5303 134.067 67.5316 134.076 67.5329 134.087L67.5345 136.865C67.5192 137.41 67.0805 137.849 66.5333 137.849L66.4859 137.85H66.2479H65.9943C65.4428 137.85 64.9973 137.404 64.9891 136.853L64.9875 135.87C64.9875 135.86 64.9875 135.852 64.9862 135.842L64.9849 134.145C64.9849 134.116 64.9904 134.086 64.993 134.057L64.9917 132.984C64.9891 132.987 64.9862 132.991 64.9819 132.994L64.9806 130.549V130.332C64.9793 129.022 63.9209 127.961 62.6163 127.961H62.3447C61.0594 127.963 60.0193 128.995 59.9885 130.278C59.9885 130.297 59.983 130.316 59.983 130.335" fill="#E60000"/>
<path id="Vector_5" d="M94.003 149.908C94.2815 149.628 94.5041 149.3 94.6699 148.924C94.8356 148.549 94.918 148.15 94.918 147.731C94.918 147.294 94.8356 146.887 94.6699 146.511C94.5041 146.136 94.2815 145.803 94.003 145.514C93.7245 145.226 93.3931 144.998 93.01 144.832C92.6259 144.667 92.2261 144.583 91.8071 144.583C91.3893 144.583 90.9882 144.667 90.6038 144.832C90.2211 144.998 89.8909 145.226 89.6111 145.514C89.3326 145.803 89.1113 146.136 88.9443 146.511C88.7799 146.887 88.6962 147.294 88.6962 147.731C88.6962 148.15 88.7799 148.549 88.9443 148.924C89.1113 149.3 89.3326 149.628 89.6111 149.908C89.8909 150.187 90.2211 150.411 90.6038 150.577C90.9882 150.743 91.3893 150.826 91.8071 150.826C92.2261 150.826 92.6259 150.743 93.01 150.577C93.3931 150.411 93.7245 150.187 94.003 149.908Z" fill="#E60000"/>
<path id="Vector_6" d="M42.8466 136.411C42.8466 137.261 42.1602 137.95 41.3149 137.95H34.5014C33.6548 137.95 32.97 137.261 32.97 136.411V134.423C32.97 133.574 33.6548 132.885 34.5014 132.885H41.3149C42.1602 132.885 42.8466 133.574 42.8466 134.423V136.411ZM18.0077 137.266C18.0077 138.085 17.3465 138.75 16.5302 138.75H14.4363C13.6187 138.75 12.9575 138.085 12.9575 137.266V131.794C12.9575 130.975 13.6187 130.31 14.4363 130.31H16.5302C17.3465 130.31 18.0077 130.975 18.0077 131.794V137.266ZM47.1729 130.968C46.9584 130.272 46.6423 129.704 46.2262 129.267C45.8098 128.827 45.2917 128.507 44.6749 128.306C44.0551 128.103 43.3438 128.002 42.5387 128.002H32.9546V124.475V124.258C32.9546 122.952 31.8991 121.892 30.5955 121.892H30.3255C29.0415 121.892 28.003 122.921 27.9723 124.201C27.971 124.22 27.9654 124.239 27.9654 124.258V125.741C27.9654 125.747 27.9625 125.757 27.9625 125.757V134.926H27.9527V137.043C27.9527 137.519 27.567 137.906 27.0924 137.906H23.7922C23.3283 137.906 22.958 137.537 22.9384 137.078V134.671V134.666V133.75V131.64C22.9247 129.705 22.4971 128.308 21.6573 127.452C20.8179 126.594 19.6062 126.167 18.0231 126.167H12.963C11.3796 126.167 10.1613 126.594 9.30622 127.452C8.45274 128.308 8.02649 129.705 8.02649 131.64V137.468C8.02649 138.443 8.13371 139.275 8.34814 139.965C8.56421 140.654 8.88291 141.222 9.30622 141.668C9.72953 142.114 10.2476 142.441 10.8589 142.651C11.4702 142.859 12.1707 142.964 12.963 142.964H25.019H25.1847H27.8942H32.8402H42.5805C43.3729 142.964 44.0734 142.859 44.6847 142.651C45.2959 142.441 45.8098 142.114 46.2262 141.668C46.6423 141.222 46.9584 140.654 47.1729 139.965C47.3889 139.275 47.4961 138.443 47.4961 137.468V133.477C47.4961 132.501 47.3889 131.666 47.1729 130.968Z" fill="#E60000"/>
<path id="Vector_7" d="M46.9205 162.153C46.0974 161.808 45.1171 161.636 43.9809 161.636H41.2992C41.0151 161.636 40.7755 161.54 40.5833 161.346C40.3898 161.153 40.2937 160.924 40.2937 160.661C40.2937 160.376 40.3898 160.143 40.5833 159.96C40.7755 159.776 41.0151 159.684 41.2992 159.684H46.22C47.2533 159.684 48.093 158.848 48.093 157.812V157.782C48.093 156.746 47.2533 155.908 46.22 155.908H40.568C39.6547 155.908 38.8178 156.131 38.0546 156.577C37.2929 157.026 36.6941 157.614 36.2584 158.344C35.821 159.075 35.6027 159.89 35.6027 160.783C35.6027 161.941 35.8419 162.88 36.3182 163.6C36.7945 164.321 37.4446 164.849 38.2677 165.185C39.0908 165.518 40.0096 165.686 41.0262 165.686H43.7665C43.9685 165.686 44.1522 165.731 44.3153 165.824C44.4768 165.915 44.6092 166.041 44.7121 166.205C44.8121 166.368 44.8638 166.55 44.8638 166.752C44.8638 166.935 44.8121 167.107 44.7121 167.271C44.6092 167.433 44.4768 167.56 44.3153 167.652C44.1522 167.743 43.9685 167.787 43.7665 167.787H38.116C37.0815 167.787 36.2417 168.627 36.2417 169.662C36.2417 170.696 37.0815 171.536 38.116 171.536H44.4379C45.3917 171.536 46.2507 171.312 47.0111 170.865C47.7727 170.42 48.3826 169.82 48.8393 169.067C49.2959 168.316 49.5244 167.494 49.5244 166.6C49.5244 165.424 49.2959 164.473 48.8393 163.753C48.3826 163.032 47.742 162.498 46.9205 162.153Z" fill="#E60000"/>
<path id="Vector_8" d="M26.7785 167.221C24.7539 167.221 23.1123 165.573 23.1123 163.542C23.1123 161.511 24.7539 159.864 26.7785 159.864C28.8032 159.864 30.4448 161.511 30.4448 163.542C30.4448 165.573 28.8032 167.221 26.7785 167.221ZM33.7228 160.647C33.3217 159.735 32.783 158.929 32.106 158.229C31.4307 157.529 30.6272 156.978 29.6973 156.575C28.7657 156.171 27.7938 155.97 26.7785 155.97C25.7636 155.97 24.7915 156.171 23.8598 156.575C22.9312 156.978 22.1277 157.529 21.4511 158.229C20.7744 158.929 20.2367 159.735 19.8343 160.647C19.432 161.56 19.2316 162.546 19.2316 163.606C19.2316 164.624 19.432 165.59 19.8343 166.501C20.2367 167.415 20.7744 168.21 21.4511 168.887C22.1277 169.566 22.9312 170.107 23.8598 170.511C24.7915 170.914 25.7636 171.114 26.7785 171.114C27.7938 171.114 28.7657 170.914 29.6973 170.511C30.0509 170.357 30.3866 170.184 30.7027 169.99C30.7707 170.878 31.5059 171.579 32.4084 171.578H32.6048C33.5391 171.578 34.2951 170.826 34.3131 169.893H34.3187L34.316 163.996C34.3216 163.866 34.3242 163.736 34.3242 163.606C34.3242 162.546 34.1252 161.56 33.7228 160.647Z" fill="#E60000"/>
<path id="Vector_9" d="M59.0001 167.221C56.9757 167.221 55.3338 165.573 55.3338 163.542C55.3338 161.511 56.9757 159.864 59.0001 159.864C61.0248 159.864 62.6667 161.511 62.6667 163.542C62.6667 165.573 61.0248 167.221 59.0001 167.221ZM65.9443 160.647C65.5436 159.735 65.0045 158.929 64.3279 158.229C63.6526 157.529 62.8491 156.978 61.9188 156.575C60.9872 156.171 60.0154 155.97 59.0001 155.97C57.9851 155.97 57.0133 156.171 56.0817 156.575C55.1527 156.978 54.3509 157.529 53.6726 158.229C52.996 158.929 52.457 159.735 52.0559 160.647C51.6535 161.56 51.4531 162.546 51.4531 163.606C51.4531 164.624 51.6535 165.59 52.0559 166.501C52.457 167.415 52.996 168.21 53.6726 168.887C54.3509 169.566 55.1527 170.107 56.0817 170.511C57.0133 170.914 57.9851 171.114 59.0001 171.114C60.0154 171.114 60.9872 170.914 61.9188 170.511C62.2725 170.357 62.6082 170.184 62.9243 169.99C62.9923 170.878 63.7277 171.579 64.6299 171.578H64.8264C65.7606 171.578 66.5167 170.826 66.535 169.893H66.5405L66.5363 163.996C66.5432 163.866 66.5474 163.736 66.5474 163.606C66.5474 162.546 66.347 161.56 65.9443 160.647Z" fill="#E60000"/>
<path id="Vector_10" d="M87.4103 167.221C85.3859 167.221 83.744 165.573 83.744 163.542C83.744 161.511 85.3859 159.864 87.4103 159.864C89.4349 159.864 91.0769 161.511 91.0769 163.542C91.0769 165.573 89.4349 167.221 87.4103 167.221ZM94.9576 163.606C94.9576 162.546 94.7572 161.56 94.3545 160.647C93.9537 159.735 93.4147 158.929 92.7381 158.229C92.0627 157.529 91.2593 156.978 90.329 156.575C89.3974 156.171 88.4255 155.97 87.4103 155.97C86.3953 155.97 85.4235 156.171 84.4919 156.575C83.5629 156.978 82.7611 157.529 82.0828 158.229C81.4062 158.929 80.8688 159.735 80.466 160.647C80.0637 161.56 79.8633 162.546 79.8633 163.606C79.8633 164.624 80.0637 165.59 80.466 166.501C80.8688 167.415 81.4062 168.21 82.0828 168.887C82.7611 169.566 83.5629 170.107 84.4919 170.511C85.4235 170.914 86.3953 171.114 87.4103 171.114C88.4255 171.114 89.3974 170.914 90.329 170.511C90.6826 170.357 91.0184 170.184 91.3344 169.99C91.4028 170.878 92.1379 171.579 93.0401 171.578H93.2365C94.1708 171.578 94.9268 170.826 94.9451 169.893H94.9507L94.9478 163.996C94.9546 163.866 94.9576 163.736 94.9576 163.606Z" fill="#E60000"/>
<path id="Vector_11" d="M76.1839 159.92C76.195 159.92 76.2032 159.918 76.2147 159.918H76.2202C77.1835 159.897 77.9605 159.109 77.9592 158.137V157.933C77.9579 156.96 77.1822 156.174 76.2173 156.154V156.149L74.6813 156.15H74.4126V154.403C74.4139 154.405 74.4139 154.406 74.4155 154.408V153.617C74.4155 153.606 74.4113 153.596 74.4113 153.585V153.579C74.3903 152.612 73.6065 151.834 72.6373 151.834L72.434 151.836C71.4648 151.836 70.6809 152.615 70.6613 153.582H70.6557L70.6571 156.15H70.2811C70.27 156.15 70.2619 156.153 70.2504 156.154H70.2449C69.2815 156.175 68.5046 156.962 68.5059 157.934V158.138C68.5072 159.11 69.2829 159.897 70.2478 159.917V159.922H70.6571L70.6587 169.275C70.66 170.548 71.689 171.581 72.9576 171.581H74.4168L76.2202 171.578C76.6183 171.578 76.9789 171.428 77.2548 171.181C77.6614 170.856 77.9229 170.355 77.9229 169.793V169.589C77.9229 168.616 77.1459 167.83 76.1826 167.81V167.804L74.4155 167.806L74.4139 159.919L75.3997 159.918C75.3984 159.919 75.3971 159.92 75.3942 159.922L76.1839 159.92Z" fill="#E60000"/>
<path id="Vector_12" d="M12.3719 166.645C12.1839 166.966 11.9348 167.221 11.6256 167.409C11.3151 167.596 10.9643 167.69 10.5688 167.69H6.84958C5.69798 167.69 4.76507 166.754 4.76507 165.599C4.76507 164.444 5.69798 163.507 6.84958 163.507H10.5688C10.9643 163.507 11.3151 163.602 11.6256 163.791C11.9348 163.979 12.1839 164.228 12.3719 164.541C12.5598 164.851 12.6533 165.204 12.6533 165.6C12.6533 165.977 12.5598 166.325 12.3719 166.645ZM6.72275 155.792H10.0896C10.4658 155.792 10.7986 155.882 11.0908 156.059C11.3804 156.239 11.6115 156.475 11.7802 156.766C11.9502 157.06 12.0335 157.393 12.0335 157.771C12.0335 158.128 11.9502 158.454 11.7802 158.746C11.6115 159.038 11.3804 159.273 11.0908 159.451C10.7986 159.632 10.4658 159.72 10.0896 159.72H6.72275C5.64209 159.72 4.76507 158.841 4.76507 157.757C4.76507 156.671 5.64209 155.792 6.72275 155.792ZM15.6832 162.49C15.1847 162.001 14.6165 161.624 13.9775 161.36C14.5221 161.096 15.0052 160.748 15.4285 160.313C15.8518 159.882 16.179 159.381 16.4157 158.816C16.6497 158.25 16.7668 157.657 16.7668 157.036C16.7668 155.98 16.5272 155.066 16.0479 154.293C15.5691 153.521 14.93 152.919 14.1321 152.484C13.3342 152.051 12.4471 151.834 11.4697 151.834H4.15381C1.8784 151.834 0.0318604 153.686 0.0318604 155.969V168.477C0.0318604 170.212 1.43548 171.62 3.1663 171.62H11.8093C12.8217 171.62 13.7421 171.399 14.5692 170.956C15.3965 170.513 16.0578 169.888 16.5563 169.076C17.0534 168.266 17.3028 167.324 17.3028 166.25C17.3028 165.515 17.1564 164.827 16.8655 164.186C16.5729 163.545 16.179 162.98 15.6832 162.49Z" fill="#E60000"/>
</g>
</svg>
