<svg width="18" height="20" viewBox="0 0 18 20" fill="none" xmlns="http://www.w3.org/2000/svg">
<g id="Group">
<path id="Vector" d="M17.28 0.819824H14.04C13.644 0.819824 13.32 1.14382 13.32 1.53982C13.32 1.93582 13.644 2.25982 14.04 2.25982H15.552L6.48 11.3318L4.644 9.49582C4.356 9.20782 3.924 9.20782 3.636 9.49582L0.216 12.9158C-0.072 13.2038 -0.072 13.6358 0.216 13.9238C0.36 14.0678 0.54 14.1398 0.72 14.1398C0.9 14.1398 1.08 14.0678 1.224 13.9238L4.14 11.0078L5.976 12.8438C6.264 13.1318 6.696 13.1318 6.984 12.8438L16.56 3.26782V4.77982C16.56 5.17582 16.884 5.49982 17.28 5.49982C17.676 5.49982 18 5.17582 18 4.77982V1.53982C18 1.14382 17.676 0.819824 17.28 0.819824Z" fill="#AEAEAE"/>
<path id="Vector_2" d="M14.5 8.5C13.492 8.5 13 9.17182 13 10.1798V14V17.3798C13 18.3878 13.492 19.1798 14.5 19.1798C15.508 19.1798 15.84 18.3878 15.84 17.3798V10.1798C15.84 9.17182 15.508 8.5 14.5 8.5ZM10 12.5C8.992 12.5 8.5 13.492 8.5 14.5V16V17.3798C8.5 18.3878 8.992 19.1798 10 19.1798C11.008 19.1798 11.52 18.3878 11.52 17.3798V14.4998C11.52 13.4918 11.008 12.5 10 12.5ZM5.5 14.5C4.492 14.5 4 15.2918 4 16.2998V17.3798C4 18.3878 4.392 19.1798 5.4 19.1798C6.408 19.1798 7 18.508 7 17.5V16.5C7 15.492 6.508 14.5 5.5 14.5ZM3.6 4.41982H7.56C7.956 4.41982 8.28 4.09582 8.28 3.69982C8.28 3.30382 7.956 2.97982 7.56 2.97982H3.6C3.204 2.97982 2.88 3.30382 2.88 3.69982C2.88 4.09582 3.204 4.41982 3.6 4.41982ZM3.6 2.25982H5.04C5.436 2.25982 5.76 1.93582 5.76 1.53982C5.76 1.14382 5.436 0.819824 5.04 0.819824H3.6C3.204 0.819824 2.88 1.14382 2.88 1.53982C2.88 1.93582 3.204 2.25982 3.6 2.25982Z" fill="#AEAEAE"/>
<path id="Vector_3" d="M9.72 4.41998C10.1176 4.41998 10.44 4.09763 10.44 3.69998C10.44 3.30234 10.1176 2.97998 9.72 2.97998C9.32235 2.97998 9 3.30234 9 3.69998C9 4.09763 9.32235 4.41998 9.72 4.41998Z" fill="#AEAEAE"/>
</g>
</svg>
