<svg width="23" height="24" viewBox="0 0 23 24" fill="none" xmlns="http://www.w3.org/2000/svg">
<g id="Group">
<path id="Vector" d="M17.887 21.9999C15.8562 21.9999 14.2043 20.43 14.2043 18.5001C14.2043 16.5699 15.8562 15 17.887 15C19.9176 15 21.5695 16.5699 21.5695 18.5001C21.5695 20.43 19.9176 21.9999 17.887 21.9999ZM17.887 16.5C16.7265 16.5 15.7826 17.397 15.7826 18.5001C15.7826 19.6031 16.7265 20.4999 17.887 20.4999C19.0476 20.4999 19.9912 19.6031 19.9912 18.5001C19.9912 17.397 19.0476 16.5 17.887 16.5Z" fill="#AEAEAE"/>
<path id="Vector_2" d="M17.887 24C17.4514 24 17.0979 23.664 17.0979 23.25V21.2499C17.0979 20.8359 17.4514 20.4999 17.887 20.4999C18.3226 20.4999 18.6761 20.8359 18.6761 21.2499V23.25C18.6761 23.664 18.3226 24 17.887 24ZM17.887 16.5C17.4514 16.5 17.0979 16.164 17.0979 15.75V13.7499C17.0979 13.3359 17.4514 12.9999 17.887 12.9999C18.3226 12.9999 18.6761 13.3359 18.6761 13.7499V15.75C18.6761 16.164 18.3226 16.5 17.887 16.5ZM20.3911 17.88C20.1185 17.88 19.8534 17.746 19.7072 17.505C19.4893 17.146 19.6188 16.688 19.9954 16.48L21.8157 15.4799C22.1923 15.273 22.6753 15.396 22.8942 15.754C23.1121 16.1129 22.9826 16.5711 22.606 16.779L20.7857 17.779C20.666 17.8455 20.5298 17.8804 20.3911 17.88ZM13.5635 21.62C13.2911 21.62 13.0258 21.486 12.8796 21.245C12.6619 20.886 12.7912 20.428 13.168 20.22L14.9883 19.22C15.3649 19.012 15.8479 19.136 16.0668 19.494C16.2845 19.853 16.155 20.311 15.7783 20.519L13.9581 21.5189C13.8383 21.5852 13.7022 21.6201 13.5635 21.62ZM15.3828 17.88C15.2442 17.8803 15.108 17.8454 14.9883 17.779L13.168 16.779C12.7912 16.5711 12.6619 16.113 12.8796 15.754C13.0985 15.396 13.5815 15.273 13.9581 15.4799L15.7783 16.48C16.155 16.6881 16.2845 17.146 16.0668 17.505C15.9193 17.746 15.6542 17.88 15.3828 17.88ZM22.2102 21.62C22.0716 21.6202 21.9354 21.5853 21.8157 21.5189L19.9954 20.519C19.6188 20.311 19.4893 19.853 19.7072 19.494C19.9261 19.136 20.4089 19.0129 20.7857 19.22L22.606 20.22C22.9826 20.428 23.1121 20.8859 22.8942 21.245C22.748 21.486 22.4828 21.62 22.2102 21.62ZM9.46955 9.99994C6.56871 9.99994 4.20862 7.75706 4.20862 5.00006C4.20862 2.24306 6.56871 0 9.46955 0C12.3704 0 14.7305 2.24306 14.7305 5.00006C14.7305 7.75706 12.3704 9.99994 9.46955 9.99994ZM9.46955 1.5C7.43892 1.5 5.78688 3.06994 5.78688 5.00006C5.78688 6.93 7.43892 8.49994 9.46955 8.49994C11.5002 8.49994 13.1522 6.93 13.1522 5.00006C13.1522 3.06994 11.5002 1.5 9.46955 1.5Z" fill="#AEAEAE"/>
<path id="Vector_3" d="M10.5217 21H0.789129C0.35353 21 0 20.664 0 20.25V16.7499C0 14.131 2.24211 12 4.99775 12H13.9413C14.3769 12 14.7305 12.336 14.7305 12.75C14.7305 13.164 14.3769 13.5 13.9413 13.5H4.99775C3.11238 13.5 1.57826 14.958 1.57826 16.7499V19.5H10.5217C10.9573 19.5 11.3108 19.836 11.3108 20.25C11.3108 20.664 10.9573 21 10.5217 21Z" fill="#AEAEAE"/>
</g>
</svg>
